# xmcd
#
# Track frame offsets:
#	150
#	17857
#	33335
#	46442
#	62300
#	76100
#	93167
#	106600
#	121930
#	135360
#	151037
#
# Disc length: 2273 seconds
#
# Revision: 0
# Processed by: cddbd v1.4PL0 Copyright (c) Steve Scherf et al.
# Submitted via: dBpowerAMP V4.0
#
DISCID=6e08df0b
DTITLE=Jim Piolt - Leave A Mark
DYEAR=2002
DGENRE=Country
TTITLE0=Breaking Horses and Hearts
TTITLE1=Leave A Mark
TTITLE2=If That Ain't Love
TTITLE3=White Kisses
TTITLE4=That Girl's Good Ole Boy
TTITLE5=Forever Mi Amor
TTITLE6=The Country In Me
TTITLE7=Mending Fences
TTITLE8=Son Of A Honky Tonk Woman
TTITLE9=It's A Woman Thing
TTITLE10=Ask A Woman
EXTD=Mega Records
EXTT0=
EXTT1=
EXTT2=
EXTT3=
EXTT4=
EXTT5=
EXTT6=
EXTT7=
EXTT8=
EXTT9=
EXTT10=
PLAYORDER=
